<?xml version="1.0" encoding="UTF-8"?>
<svg width="62px" height="109px" viewBox="0 0 62 109" version="1.1" xmlns="http://www.w3.org/2000/svg" xmlns:xlink="http://www.w3.org/1999/xlink">
    <!-- Generator: Sketch 64 (93537) - https://sketch.com -->
    <title>Searching</title>
    <desc>Created with Sketch.</desc>
    <defs>
        <filter x="-6.0%" y="-11.9%" width="112.0%" height="123.8%" filterUnits="objectBoundingBox" id="filter-1">
            <feOffset dx="0" dy="2" in="SourceAlpha" result="shadowOffsetOuter1"></feOffset>
            <feGaussianBlur stdDeviation="2" in="shadowOffsetOuter1" result="shadowBlurOuter1"></feGaussianBlur>
            <feColorMatrix values="0 0 0 0 0   0 0 0 0 0   0 0 0 0 0  0 0 0 0.400442697 0" type="matrix" in="shadowBlurOuter1" result="shadowMatrixOuter1"></feColorMatrix>
            <feMerge>
                <feMergeNode in="shadowMatrixOuter1"></feMergeNode>
                <feMergeNode in="SourceGraphic"></feMergeNode>
            </feMerge>
        </filter>
        <linearGradient x1="50.0000255%" y1="100.000111%" x2="50.0000255%" y2="0%" id="linearGradient-2">
            <stop stop-color="#FFFFFF" stop-opacity="0" offset="0%"></stop>
            <stop stop-color="#E6E2E0" stop-opacity="0.1511" offset="14.17%"></stop>
            <stop stop-color="#5D4037" offset="93.79%"></stop>
            <stop stop-color="#553A32" offset="94.28%"></stop>
            <stop stop-color="#482F29" offset="95.45%"></stop>
            <stop stop-color="#402924" offset="96.96%"></stop>
            <stop stop-color="#3E2723" offset="100%"></stop>
        </linearGradient>
        <linearGradient x1="50.0000684%" y1="99.9999761%" x2="50.0000684%" y2="0%" id="linearGradient-3">
            <stop stop-color="#FFFFFF" stop-opacity="0" offset="0%"></stop>
            <stop stop-color="#D2CDCC" stop-opacity="0.2276" offset="22.76%"></stop>
            <stop stop-color="#3E2723" offset="100%"></stop>
        </linearGradient>
    </defs>
    <g id="Auth" stroke="none" stroke-width="1" fill="none" fill-rule="evenodd">
        <g id="Login" transform="translate(-598.000000, -762.000000)" fill-rule="nonzero">
            <g id="Searching" filter="url(#filter-1)" transform="translate(568.000000, 764.000000)">
                <path d="M174.685,43.1165 L174.685,79.654 L22.625,79.654 L22.625,43.184 C26.915,43.184 30.455,41.669 31,39.709 C31.545,41.669 35.085,43.184 39.375,43.184 C43.415,43.184 46.79,41.8415 47.625,40.0465 C48.46,41.8415 51.835,43.184 55.875,43.184 C60.165,43.184 63.705,41.669 64.25,39.709 C64.795,41.669 68.335,43.184 72.625,43.184 C76.915,43.184 80.455,41.669 81,39.709 C81.545,41.669 85.085,43.184 89.375,43.184 C93.665,43.184 97.205,41.669 97.75,39.709 C98.295,41.669 101.835,43.184 106.125,43.184 C110.415,43.184 113.955,41.669 114.5,39.709 C115.045,41.669 118.585,43.184 122.875,43.184 C127.165,43.184 130.705,41.669 131.25,39.709 C131.795,41.669 135.335,43.184 139.625,43.184 C143.915,43.184 147.455,41.669 148,39.709 C148.545,41.669 152.085,43.184 156.375,43.184 C160.665,43.184 164.205,41.669 164.75,39.709 C165.295,41.669 168.835,43.184 173.125,43.184 C173.6575,43.184 174.18,43.1615 174.685,43.1165 Z" id="Path" fill="#000000" opacity="0"></path>
                <path d="M174.685,43.1165 L174.685,79.654 L22.625,79.654 L22.625,43.184 C26.915,43.184 30.455,41.669 31,39.709 C31.545,41.669 35.085,43.184 39.375,43.184 C43.415,43.184 46.79,41.8415 47.625,40.0465 C48.46,41.8415 51.835,43.184 55.875,43.184 C60.165,43.184 63.705,41.669 64.25,39.709 C64.795,41.669 68.335,43.184 72.625,43.184 C76.915,43.184 80.455,41.669 81,39.709 C81.545,41.669 85.085,43.184 89.375,43.184 C93.665,43.184 97.205,41.669 97.75,39.709 C98.295,41.669 101.835,43.184 106.125,43.184 C110.415,43.184 113.955,41.669 114.5,39.709 C115.045,41.669 118.585,43.184 122.875,43.184 C127.165,43.184 130.705,41.669 131.25,39.709 C131.795,41.669 135.335,43.184 139.625,43.184 C143.915,43.184 147.455,41.669 148,39.709 C148.545,41.669 152.085,43.184 156.375,43.184 C160.665,43.184 164.205,41.669 164.75,39.709 C165.295,41.669 168.835,43.184 173.125,43.184 C173.6575,43.184 174.18,43.1615 174.685,43.1165 Z" id="Path" fill="#000000" opacity="0"></path>
                <path d="M174.685,53.1165 L174.685,89.654 L22.625,89.654 L22.625,53.184 C26.915,53.184 30.455,51.669 31,49.709 C31.545,51.669 35.085,53.184 39.375,53.184 C43.415,53.184 46.79,51.8415 47.625,50.0465 C48.46,51.8415 51.835,53.184 55.875,53.184 C60.165,53.184 63.705,51.669 64.25,49.709 C64.795,51.669 68.335,53.184 72.625,53.184 C76.915,53.184 80.455,51.669 81,49.709 C81.545,51.669 85.085,53.184 89.375,53.184 C93.665,53.184 97.205,51.669 97.75,49.709 C98.295,51.669 101.835,53.184 106.125,53.184 C110.415,53.184 113.955,51.669 114.5,49.709 C115.045,51.669 118.585,53.184 122.875,53.184 C127.165,53.184 130.705,51.669 131.25,49.709 C131.795,51.669 135.335,53.184 139.625,53.184 C143.915,53.184 147.455,51.669 148,49.709 C148.545,51.669 152.085,53.184 156.375,53.184 C160.665,53.184 164.205,51.669 164.75,49.709 C165.295,51.669 168.835,53.184 173.125,53.184 C173.6575,53.184 174.18,53.1615 174.685,53.1165 Z" id="Path" fill="#000000" opacity="0"></path>
                <path d="M174.685,63.1165 L174.685,99.654 L22.625,99.654 L22.625,63.184 C26.915,63.184 30.455,61.669 31,59.709 C31.545,61.669 35.085,63.184 39.375,63.184 C43.415,63.184 46.79,61.8415 47.625,60.0465 C48.46,61.8415 51.835,63.184 55.875,63.184 C60.165,63.184 63.705,61.669 64.25,59.709 C64.795,61.669 68.335,63.184 72.625,63.184 C76.915,63.184 80.455,61.669 81,59.709 C81.545,61.669 85.085,63.184 89.375,63.184 C93.665,63.184 97.205,61.669 97.75,59.709 C98.295,61.669 101.835,63.184 106.125,63.184 C110.415,63.184 113.955,61.669 114.5,59.709 C115.045,61.669 118.585,63.184 122.875,63.184 C127.165,63.184 130.705,61.669 131.25,59.709 C131.795,61.669 135.335,63.184 139.625,63.184 C143.915,63.184 147.455,61.669 148,59.709 C148.545,61.669 152.085,63.184 156.375,63.184 C160.665,63.184 164.205,61.669 164.75,59.709 C165.295,61.669 168.835,63.184 173.125,63.184 C173.6575,63.184 174.18,63.1615 174.685,63.1165 Z" id="Path" fill="#000000" opacity="0"></path>
                <path d="M173.125,43.184 C168.835,43.184 165.295,41.669 164.75,39.709 C164.205,41.669 160.665,43.184 156.375,43.184 C152.085,43.184 148.545,41.669 148,39.709 C147.455,41.669 143.915,43.184 139.625,43.184 C135.335,43.184 131.795,41.669 131.25,39.709 C130.705,41.669 127.165,43.184 122.875,43.184 C118.585,43.184 115.045,41.669 114.5,39.709 C113.955,41.669 110.415,43.184 106.125,43.184 C101.835,43.184 98.295,41.669 97.75,39.709 C97.205,41.669 93.665,43.184 89.375,43.184 C85.085,43.184 81.545,41.669 81,39.709 C80.455,41.669 76.915,43.184 72.625,43.184 C68.335,43.184 64.795,41.669 64.25,39.709 C63.705,41.669 60.165,43.184 55.875,43.184 C51.835,43.184 48.46,41.8415 47.625,40.0465 C46.79,41.8415 43.415,43.184 39.375,43.184 C35.085,43.184 31.545,41.669 31,39.709 C30.455,41.669 4.415,43.184 0.125,43.184 L0.125,53.184 L0.125,63.184 L0.125,79.654 L0.125,89.654 L0.125,99.654 L199.685,99.654 L199.685,89.654 L199.685,79.654 L199.685,63.1165 L199.685,53.1165 L199.685,43.1165 C199.18,43.1615 173.6575,43.184 173.125,43.184 Z" id="Path" fill="#000000" opacity="0"></path>
                <g id="Group" transform="translate(43.250000, 0.250000)" fill="#F5F5F5">
                    <path d="M0.064,18.5 C0.064,18.5 -1.43175,6.56975 10.03625,7.83875 C10.03625,7.83875 11.7815,-1.55325 23,0.2235 C23,0.2235 13.5265,1.7465 13.02775,8.60025 C13.02775,8.60025 11.532,11.64625 8.54025,13.42325 L9.03875,10.37725 C9.039,10.37725 2.557,10.37725 0.064,18.5 Z" id="Path"></path>
                </g>
                <g id="Group" transform="translate(34.250000, 65.750000)">
                    <polygon id="Path" fill="#A1887F" points="53 3 50.25 28.25 46.5 31.25 46.5 31.25 42.75 32.25 42.75 32.25 38 34 32.25 34.5 24.25 34.75 24.25 34.75 0 34.75 0 22.75 25.88 19.665 25.8825 19.665 32.87 14.8575 39.4625 14.7075 44 10.25 48.75 11.25"></polygon>
                    <polygon id="Path" fill="#D7CCC8" points="7.25 4.75 13.75 4 18.5 2.5 37 0 43.5 2.5 53 3 48.75 11.25 44 10.25 39.5 14.75 32.75 15 26 19.75 0 22.75"></polygon>
                    <polygon id="Path" fill="#A1887F" points="53 3 50.25 28.25 46.5 31.25 48.75 11.25"></polygon>
                    <polygon id="Path" fill="#8D6E63" points="48.75 11.25 46.5 31.25 42.75 32.25 44 10.25"></polygon>
                    <polygon id="Path" fill="#8D6E63" points="24.25 34.75 0 34.75 0 22.75 26 19.75"></polygon>
                    <polygon id="Path" fill="#A1887F" points="44 10.25 42.75 32.25 38 34 39.5 14.75"></polygon>
                    <polygon id="Path" fill="#8D6E63" points="39.5 14.75 38 34 32.25 34.5 32.75 15"></polygon>
                    <polygon id="Path" fill="#A1887F" points="32.75 15 32.25 34.5 24.25 34.75 26 19.75"></polygon>
                </g>
                <g id="Group" transform="translate(41.000000, 16.250000)">
                    <g transform="translate(28.000000, 2.250000)">
                        <path d="M12.6625,0.1715 C12.66175,0.1715 12.661,0.17275 12.66,0.17275 L12.66,0.17175 L10.39225,0.32875 L10.594,3.24425 L12.86175,3.08725 L12.86175,3.08625 C12.8625,3.08625 12.8635,3.08725 12.86425,3.08725 C13.04175,3.075 13.1405,2.41225 13.08475,1.60725 C13.029,0.802 12.84,0.15925 12.6625,0.1715 Z" id="Path" fill="#616161"></path>
                        <ellipse id="Oval" fill="#424242" transform="translate(10.492690, 1.783618) rotate(-3.962334) translate(-10.492690, -1.783618) " cx="10.49269" cy="1.78361755" rx="1" ry="1.4612358"></ellipse>
                        <path d="M10.65025,1.7755 C10.6105,1.20125 10.51875,0.73575 10.43675,0.66625 C10.42325,0.65225 10.41475,0.652499703 10.41475,0.652499703 L4.82875,1.03925 L4.98575,3.307 L10.57175,2.92025 C10.57175,2.92025 10.58,2.919 10.5915,2.9035 C10.663,2.824 10.69,2.35 10.65025,1.7755 Z" id="Path" fill="#616161"></path>
                        <ellipse id="Oval" fill="#424242" transform="translate(4.906514, 2.170599) rotate(-3.962334) translate(-4.906514, -2.170599) " cx="4.9065137" cy="2.17059862" rx="1" ry="1.13648896"></ellipse>
                        <path d="M4.8105,1.366 L0.0335,1.69675 L0.14575,3.3165 L4.92275,2.98575 C5.00375,2.98025 5.04425,2.613 5.01325,2.16575 C4.98225,1.7185 4.8915,1.3605 4.8105,1.366 Z" id="Path" fill="#616161"></path>
                    </g>
                    <path d="M32.12775,59.16475 C32.12775,59.16475 17.348,68.595 11.375,69.289 C10.51025,69.3895 7.43775,69.3755 7.25,68.52525 C7.06875,67.70425 9.4355,66.81 10.25,66.6015 C15.375,65.289 25.875,58.289 25.875,58.289 L32.12775,59.16475 Z" id="Path" fill="url(#linearGradient-2)" opacity="0.2"></path>
                    <path d="M21.29225,56.83375 C21.29225,56.83375 -1.33325,66.98725 0.25,65.673 C3.687,62.82 15.35,56.2835 15.35,56.2835 L21.29225,56.83375 Z" id="Path" fill="url(#linearGradient-3)" opacity="0.2"></path>
                    <path d="M27.82225,7.81375 C27.63075,8.25375 27.14475,8.704 26.01575,9.372 C26.01575,9.372 25.564,9.5945 25.79,10.70775 L21.7255,10.70775 C21.7255,10.70775 22.36925,10.327 22.782,9.37325 C23.015,8.83525 22.91425,8.21725 22.5575,7.74975 C22.09725,7.14675 21.49975,6.13725 21.49975,3.8065 C21.49975,1.13525 23.46325,0.2525 25.08525,0.249993241 C27.40975,0.24625 28.49975,1.803 28.49975,4.697 C28.49975,5.73625 28.36725,6.5635 27.82225,7.81375 Z" id="Path" fill="#FFCCBC"></path>
                    <path d="M22.375,7.859 C21.9635,7.225 21.5,6.39175 21.5,4.03925 C21.5,1.343 23.03125,0.0065 25.411,0.000235352993 C27.40625,-0.005 28.24575,1.402 28.4645,2.75025 C28.4645,2.75025 28.0485,2.67 27.742,2.98475 C27.3045,3.43425 27.64175,4.00925 27.6075,4.51525 C27.5775,4.959 27.3515,5.1405 27.1795,5.23475 C26.82,3.805 26.01725,3.889 25.7265,4.18775 C25.289,4.63725 25.553,5.9035 25.99975,6.24325 C25.99975,7.142 25.8575,7.8855 25.20125,8.335 C24.02775,9.13825 22.8125,8.533 22.375,7.859 Z" id="Path" fill="#6D4C41"></path>
                    <path d="M34.706,10.272 C32.324,7.14225 31.733,4.29175 31.6295,3.69275 C31.618,3.626 31.56625,3.57375 31.499,3.56025 L31.499,3.56025 C30.015,3.347 29.1625,3.76675 29.1625,3.76675 C28.91525,3.90625 28.89725,4.30975 28.924,4.58925 C29.0045,5.4315 28.75025,5.49975 28.75025,5.49975 C28.75025,5.87275 29.10225,6.01975 29.40475,6.2435 L30.03575,6.54575 C30.03575,6.54575 30.92525,7.42225 32.7045,11.14775 C32.969,11.703 35.079,10.76225 34.706,10.272 Z" id="Path" fill="#FFCCBC"></path>
                    <path d="M17.56975,12.1955 L17.5,24.75 L16.7335,23.5585 C16.4145,22.9225 16.25,22.21075 16.25,21.5 L16.25,16 C16.25,15.07775 16.45175,14.216 16.8325,13.3995 C17.0305,12.9725 17.277,12.56975 17.56975,12.1955 Z" id="Path" fill="#78909C"></path>
                    <path d="M25.75,56.5 L25.75,58.21925 C25.75,58.21925 25.75,59.25 26.75,59.25 C28.73075,59.25 32,59.25 32,59.25 C32,59.25 32.2615,57.9125 30.52475,57.61425 C28,57.25 28,56.5 28,56.5 L25.75,56.5 Z" id="Path" fill="#607D8B"></path>
                    <path d="M21.23,56.79525 L15.948,57.4555 C15.58325,57.4555 15.28775,57.16 15.28775,56.79525 L15.50775,55.47475 L17.7085,55.0345 L17.7085,55.0345 C17.973,55.5635 18.97925,55.8715 19.567,55.80625 L19.60925,55.8025 C20.30975,55.73875 20.96875,56.1425 21.23,56.79525 L21.23,56.79525 Z" id="Path" fill="#607D8B"></path>
                    <polygon id="Path" fill="#FFCCBC" points="15.50775 55.47475 17.7085 55.0345 18 53.25 15.75 53.25"></polygon>
                    <path d="M17.77575,28.29125 C17.77575,28.29125 16.84725,36.298 17.125,41.6815 C16.09425,45.17625 15.25,53.5 15.25,53.5 L18.25,53.5 C18.25,53.5 21.77975,41.88225 22.97925,37.084 C23.4195,35.32325 23.4105139,28.8545 23.4105139,28.8545 L17.77575,28.29125 Z" id="Path" fill="#01579B"></path>
                    <polygon id="Path" fill="#FFCCBC" points="25.5 53.923 25.75 56.5 28 56.5 28 53.673"></polygon>
                    <path d="M29.01475,29.2495 L28.61575,53.8535 L25.71275,54.06075 L24.83275,54.1235 C24.83275,54.1235 23.99875,48.71425 23.41075,42.98525 C21.87525,38.54775 21.198,32.9295 20.43125,27.48525 L29.01475,29.2495 Z" id="Path" fill="#1A68A5"></path>
                    <polygon id="Path" fill="#90CAF9" points="29.01475 18.15025 29.01475 29.2495 22.90625 28.673"></polygon>
                    <path d="M29.23425,16.64175 L34.823,15.96875 C36.40325,15.77125 37.2565,14.011 36.43325,12.64675 L34.64675,9.75 L32.3155,10.91625 L32.7525,11.705 C32.8685,11.902 32.6445,12.12375 32.44875,12.00525 L30.70725,10.94975 C29.7335,10.49125 28.68375,10.21525 27.6105,10.1355 L22.981,9.79175 C20.85775,9.6285 18.87475,10.41 17.5695,12.185 C17.5375,12.2285 17.1295,19.40325 17.1295,23.95025 C17.1295,25.78775 16.71475,26.56225 15.72425,27.30025 C15.035,27.8135 14.75,28 14.75,28 C14.75,28 15.078,28.8575 16.625,30.203 C17.5935,31.0455 20.06925,31.23475 22.09375,31.23475 C24.11825,31.23475 26,32.25 26,32.25 C26,32.25 28.45025,25.814 28.84225,22.60125 C29.23425,19.3885 29.23425,16.64175 29.23425,16.64175 Z" id="Path" fill="#90A4AE"></path>
                    <path d="M15.724,27.30275 C15.035,27.816 14.75,28 14.75,28 C14.75,28 15.078,28.8595 16.625,30.20425 C17.5935,31.04625 20.06925,31.2355 22.09375,31.2355 C24.11825,31.2355 26,32.25 26,32.25 C26,32.25 26.23425,31.748 26.534,30.893 C23.75,28.4645 18.33325,31.173 15.724,27.30275 Z" id="Path" fill="#78909C"></path>
                    <polygon id="Path" fill="#78909C" points="32.3155 10.9275 34.64675 9.762 35.339 10.98125 32.7525 11.71575"></polygon>
                </g>
            </g>
        </g>
    </g>
</svg>